<mxfile host="app.diagrams.net" agent="Mozilla/5.0 (Windows NT 10.0; Win64; x64) AppleWebKit/537.36 (KHTML, like Gecko) Chrome/134.0.0.0 Safari/537.36" version="26.1.1">
  <diagram id="C5RBs43oDa-KdzZeNtuy" name="Page-1">
    <mxGraphModel dx="1105" dy="599" grid="1" gridSize="10" guides="1" tooltips="1" connect="1" arrows="1" fold="1" page="1" pageScale="1" pageWidth="827" pageHeight="1169" math="0" shadow="0">
      <root>
        <mxCell id="WIyWlLk6GJQsqaUBKTNV-0" />
        <mxCell id="WIyWlLk6GJQsqaUBKTNV-1" parent="WIyWlLk6GJQsqaUBKTNV-0" />
        <mxCell id="4QkOVlxMaS6D0nSr4OQD-0" value="ĐƠN VỊ ĐH" style="rounded=1;arcSize=10;whiteSpace=wrap;html=1;align=center;" vertex="1" parent="WIyWlLk6GJQsqaUBKTNV-1">
          <mxGeometry x="640" y="360" width="100" height="40" as="geometry" />
        </mxCell>
        <mxCell id="4QkOVlxMaS6D0nSr4OQD-1" value="Tên ĐV" style="ellipse;whiteSpace=wrap;html=1;align=center;" vertex="1" parent="WIyWlLk6GJQsqaUBKTNV-1">
          <mxGeometry x="480" y="300" width="100" height="40" as="geometry" />
        </mxCell>
        <mxCell id="4QkOVlxMaS6D0nSr4OQD-2" value="Dịa chỉ" style="ellipse;whiteSpace=wrap;html=1;align=center;" vertex="1" parent="WIyWlLk6GJQsqaUBKTNV-1">
          <mxGeometry x="650" y="300" width="100" height="40" as="geometry" />
        </mxCell>
        <mxCell id="4QkOVlxMaS6D0nSr4OQD-6" value="Điện thoại" style="ellipse;whiteSpace=wrap;html=1;align=center;" vertex="1" parent="WIyWlLk6GJQsqaUBKTNV-1">
          <mxGeometry x="440" y="400" width="100" height="40" as="geometry" />
        </mxCell>
        <mxCell id="4QkOVlxMaS6D0nSr4OQD-7" value="" style="endArrow=none;html=1;rounded=0;exitX=0;exitY=1;exitDx=0;exitDy=0;" edge="1" parent="WIyWlLk6GJQsqaUBKTNV-1" source="4QkOVlxMaS6D0nSr4OQD-0" target="4QkOVlxMaS6D0nSr4OQD-6">
          <mxGeometry relative="1" as="geometry">
            <mxPoint x="450" y="400" as="sourcePoint" />
            <mxPoint x="610" y="400" as="targetPoint" />
          </mxGeometry>
        </mxCell>
        <mxCell id="4QkOVlxMaS6D0nSr4OQD-9" value="" style="endArrow=none;html=1;rounded=0;entryX=0.5;entryY=1;entryDx=0;entryDy=0;exitX=0.25;exitY=0;exitDx=0;exitDy=0;" edge="1" parent="WIyWlLk6GJQsqaUBKTNV-1" source="4QkOVlxMaS6D0nSr4OQD-0" target="4QkOVlxMaS6D0nSr4OQD-1">
          <mxGeometry relative="1" as="geometry">
            <mxPoint x="450" y="400" as="sourcePoint" />
            <mxPoint x="610" y="400" as="targetPoint" />
          </mxGeometry>
        </mxCell>
        <mxCell id="4QkOVlxMaS6D0nSr4OQD-10" value="" style="endArrow=none;html=1;rounded=0;entryX=0;entryY=1;entryDx=0;entryDy=0;exitX=0.75;exitY=0;exitDx=0;exitDy=0;" edge="1" parent="WIyWlLk6GJQsqaUBKTNV-1" source="4QkOVlxMaS6D0nSr4OQD-0" target="4QkOVlxMaS6D0nSr4OQD-2">
          <mxGeometry relative="1" as="geometry">
            <mxPoint x="450" y="400" as="sourcePoint" />
            <mxPoint x="610" y="400" as="targetPoint" />
          </mxGeometry>
        </mxCell>
        <mxCell id="4QkOVlxMaS6D0nSr4OQD-11" value="&lt;span style=&quot;background-color: rgb(255, 0, 0);&quot;&gt;Thuộc 1&lt;/span&gt;" style="shape=rhombus;perimeter=rhombusPerimeter;whiteSpace=wrap;html=1;align=center;" vertex="1" parent="WIyWlLk6GJQsqaUBKTNV-1">
          <mxGeometry x="430" y="490" width="120" height="60" as="geometry" />
        </mxCell>
        <mxCell id="4QkOVlxMaS6D0nSr4OQD-13" value="" style="fontSize=12;html=1;endArrow=ERmandOne;rounded=0;entryX=0.5;entryY=1;entryDx=0;entryDy=0;exitX=0.5;exitY=0;exitDx=0;exitDy=0;" edge="1" parent="WIyWlLk6GJQsqaUBKTNV-1" source="4QkOVlxMaS6D0nSr4OQD-11" target="4QkOVlxMaS6D0nSr4OQD-0">
          <mxGeometry width="100" height="100" relative="1" as="geometry">
            <mxPoint x="550" y="470" as="sourcePoint" />
            <mxPoint x="630" y="450" as="targetPoint" />
          </mxGeometry>
        </mxCell>
        <mxCell id="4QkOVlxMaS6D0nSr4OQD-14" value="" style="fontSize=12;html=1;endArrow=ERoneToMany;rounded=0;exitX=0.5;exitY=1;exitDx=0;exitDy=0;entryX=0.5;entryY=0;entryDx=0;entryDy=0;" edge="1" parent="WIyWlLk6GJQsqaUBKTNV-1" source="4QkOVlxMaS6D0nSr4OQD-11" target="4QkOVlxMaS6D0nSr4OQD-15">
          <mxGeometry width="100" height="100" relative="1" as="geometry">
            <mxPoint x="480" y="450" as="sourcePoint" />
            <mxPoint x="490" y="610" as="targetPoint" />
          </mxGeometry>
        </mxCell>
        <mxCell id="4QkOVlxMaS6D0nSr4OQD-15" value="NGUOI ĐẠT" style="rounded=1;arcSize=10;whiteSpace=wrap;html=1;align=center;" vertex="1" parent="WIyWlLk6GJQsqaUBKTNV-1">
          <mxGeometry x="440" y="620" width="100" height="40" as="geometry" />
        </mxCell>
        <mxCell id="4QkOVlxMaS6D0nSr4OQD-17" value="Mã số ND" style="ellipse;whiteSpace=wrap;html=1;align=center;fontStyle=4;" vertex="1" parent="WIyWlLk6GJQsqaUBKTNV-1">
          <mxGeometry x="300" y="610" width="100" height="40" as="geometry" />
        </mxCell>
        <mxCell id="4QkOVlxMaS6D0nSr4OQD-19" value="Họ tên ND" style="ellipse;whiteSpace=wrap;html=1;align=center;" vertex="1" parent="WIyWlLk6GJQsqaUBKTNV-1">
          <mxGeometry x="300" y="660" width="100" height="40" as="geometry" />
        </mxCell>
        <mxCell id="4QkOVlxMaS6D0nSr4OQD-20" value="" style="endArrow=none;html=1;rounded=0;exitX=1;exitY=0.5;exitDx=0;exitDy=0;entryX=0;entryY=0.5;entryDx=0;entryDy=0;" edge="1" parent="WIyWlLk6GJQsqaUBKTNV-1" source="4QkOVlxMaS6D0nSr4OQD-17" target="4QkOVlxMaS6D0nSr4OQD-15">
          <mxGeometry relative="1" as="geometry">
            <mxPoint x="450" y="600" as="sourcePoint" />
            <mxPoint x="610" y="600" as="targetPoint" />
          </mxGeometry>
        </mxCell>
        <mxCell id="4QkOVlxMaS6D0nSr4OQD-21" value="" style="endArrow=none;html=1;rounded=0;exitX=1;exitY=0.5;exitDx=0;exitDy=0;entryX=0.25;entryY=1;entryDx=0;entryDy=0;" edge="1" parent="WIyWlLk6GJQsqaUBKTNV-1" source="4QkOVlxMaS6D0nSr4OQD-19" target="4QkOVlxMaS6D0nSr4OQD-15">
          <mxGeometry relative="1" as="geometry">
            <mxPoint x="450" y="600" as="sourcePoint" />
            <mxPoint x="460" y="670" as="targetPoint" />
          </mxGeometry>
        </mxCell>
        <mxCell id="4QkOVlxMaS6D0nSr4OQD-22" value="&lt;font style=&quot;color: rgb(0, 0, 255);&quot;&gt;Đặt&lt;/font&gt;" style="shape=rhombus;perimeter=rhombusPerimeter;whiteSpace=wrap;html=1;align=center;" vertex="1" parent="WIyWlLk6GJQsqaUBKTNV-1">
          <mxGeometry x="430" y="750" width="120" height="60" as="geometry" />
        </mxCell>
        <mxCell id="4QkOVlxMaS6D0nSr4OQD-23" value="HANG" style="whiteSpace=wrap;html=1;align=center;" vertex="1" parent="WIyWlLk6GJQsqaUBKTNV-1">
          <mxGeometry x="440" y="880" width="100" height="40" as="geometry" />
        </mxCell>
        <mxCell id="4QkOVlxMaS6D0nSr4OQD-24" value="Mã hàng" style="ellipse;whiteSpace=wrap;html=1;align=center;fontStyle=4;" vertex="1" parent="WIyWlLk6GJQsqaUBKTNV-1">
          <mxGeometry x="300" y="840" width="100" height="40" as="geometry" />
        </mxCell>
        <mxCell id="4QkOVlxMaS6D0nSr4OQD-26" value="Đv tính" style="ellipse;whiteSpace=wrap;html=1;align=center;" vertex="1" parent="WIyWlLk6GJQsqaUBKTNV-1">
          <mxGeometry x="314" y="960" width="100" height="40" as="geometry" />
        </mxCell>
        <mxCell id="4QkOVlxMaS6D0nSr4OQD-27" value="Tên hàng" style="ellipse;whiteSpace=wrap;html=1;align=center;" vertex="1" parent="WIyWlLk6GJQsqaUBKTNV-1">
          <mxGeometry x="300" y="900" width="100" height="40" as="geometry" />
        </mxCell>
        <mxCell id="4QkOVlxMaS6D0nSr4OQD-28" value="Mô tả hàng" style="ellipse;whiteSpace=wrap;html=1;align=center;" vertex="1" parent="WIyWlLk6GJQsqaUBKTNV-1">
          <mxGeometry x="414" y="980" width="100" height="40" as="geometry" />
        </mxCell>
        <mxCell id="4QkOVlxMaS6D0nSr4OQD-29" value="" style="endArrow=none;html=1;rounded=0;exitX=1;exitY=0.5;exitDx=0;exitDy=0;" edge="1" parent="WIyWlLk6GJQsqaUBKTNV-1" source="4QkOVlxMaS6D0nSr4OQD-24" target="4QkOVlxMaS6D0nSr4OQD-23">
          <mxGeometry relative="1" as="geometry">
            <mxPoint x="450" y="900" as="sourcePoint" />
            <mxPoint x="610" y="900" as="targetPoint" />
          </mxGeometry>
        </mxCell>
        <mxCell id="4QkOVlxMaS6D0nSr4OQD-30" value="" style="endArrow=none;html=1;rounded=0;exitX=1;exitY=0.5;exitDx=0;exitDy=0;entryX=0;entryY=0.5;entryDx=0;entryDy=0;" edge="1" parent="WIyWlLk6GJQsqaUBKTNV-1" source="4QkOVlxMaS6D0nSr4OQD-27" target="4QkOVlxMaS6D0nSr4OQD-23">
          <mxGeometry relative="1" as="geometry">
            <mxPoint x="450" y="900" as="sourcePoint" />
            <mxPoint x="610" y="900" as="targetPoint" />
          </mxGeometry>
        </mxCell>
        <mxCell id="4QkOVlxMaS6D0nSr4OQD-31" value="" style="endArrow=none;html=1;rounded=0;exitX=1;exitY=0.5;exitDx=0;exitDy=0;entryX=0;entryY=1;entryDx=0;entryDy=0;" edge="1" parent="WIyWlLk6GJQsqaUBKTNV-1" source="4QkOVlxMaS6D0nSr4OQD-26" target="4QkOVlxMaS6D0nSr4OQD-23">
          <mxGeometry relative="1" as="geometry">
            <mxPoint x="450" y="900" as="sourcePoint" />
            <mxPoint x="610" y="900" as="targetPoint" />
          </mxGeometry>
        </mxCell>
        <mxCell id="4QkOVlxMaS6D0nSr4OQD-32" value="" style="endArrow=none;html=1;rounded=0;exitX=1;exitY=0;exitDx=0;exitDy=0;entryX=0.59;entryY=1.03;entryDx=0;entryDy=0;entryPerimeter=0;" edge="1" parent="WIyWlLk6GJQsqaUBKTNV-1" source="4QkOVlxMaS6D0nSr4OQD-28" target="4QkOVlxMaS6D0nSr4OQD-23">
          <mxGeometry relative="1" as="geometry">
            <mxPoint x="450" y="900" as="sourcePoint" />
            <mxPoint x="610" y="900" as="targetPoint" />
          </mxGeometry>
        </mxCell>
        <mxCell id="4QkOVlxMaS6D0nSr4OQD-33" value="" style="fontSize=12;html=1;endArrow=ERmandOne;rounded=0;entryX=0.5;entryY=1;entryDx=0;entryDy=0;exitX=0.5;exitY=0;exitDx=0;exitDy=0;" edge="1" parent="WIyWlLk6GJQsqaUBKTNV-1" source="4QkOVlxMaS6D0nSr4OQD-22" target="4QkOVlxMaS6D0nSr4OQD-15">
          <mxGeometry width="100" height="100" relative="1" as="geometry">
            <mxPoint x="490" y="720" as="sourcePoint" />
            <mxPoint x="580" y="850" as="targetPoint" />
          </mxGeometry>
        </mxCell>
        <mxCell id="4QkOVlxMaS6D0nSr4OQD-34" value="" style="fontSize=12;html=1;endArrow=ERoneToMany;rounded=0;exitX=0.5;exitY=1;exitDx=0;exitDy=0;" edge="1" parent="WIyWlLk6GJQsqaUBKTNV-1" source="4QkOVlxMaS6D0nSr4OQD-22" target="4QkOVlxMaS6D0nSr4OQD-23">
          <mxGeometry width="100" height="100" relative="1" as="geometry">
            <mxPoint x="490" y="880" as="sourcePoint" />
            <mxPoint x="580" y="850" as="targetPoint" />
          </mxGeometry>
        </mxCell>
        <mxCell id="4QkOVlxMaS6D0nSr4OQD-35" value="Ngày đặt" style="ellipse;whiteSpace=wrap;html=1;align=center;strokeColor=#FF0000;" vertex="1" parent="WIyWlLk6GJQsqaUBKTNV-1">
          <mxGeometry x="530" y="710" width="100" height="40" as="geometry" />
        </mxCell>
        <mxCell id="4QkOVlxMaS6D0nSr4OQD-36" value="Số lượng" style="ellipse;whiteSpace=wrap;html=1;align=center;strokeColor=#FF0000;" vertex="1" parent="WIyWlLk6GJQsqaUBKTNV-1">
          <mxGeometry x="540" y="800" width="100" height="40" as="geometry" />
        </mxCell>
        <mxCell id="4QkOVlxMaS6D0nSr4OQD-38" value="Số ĐH" style="ellipse;whiteSpace=wrap;html=1;align=center;fontStyle=4;strokeColor=#FF0000;" vertex="1" parent="WIyWlLk6GJQsqaUBKTNV-1">
          <mxGeometry x="330" y="720" width="100" height="40" as="geometry" />
        </mxCell>
        <mxCell id="4QkOVlxMaS6D0nSr4OQD-39" value="" style="endArrow=none;html=1;rounded=0;exitX=1;exitY=1;exitDx=0;exitDy=0;entryX=0.102;entryY=0.36;entryDx=0;entryDy=0;entryPerimeter=0;" edge="1" parent="WIyWlLk6GJQsqaUBKTNV-1" source="4QkOVlxMaS6D0nSr4OQD-38" target="4QkOVlxMaS6D0nSr4OQD-22">
          <mxGeometry relative="1" as="geometry">
            <mxPoint x="440" y="920" as="sourcePoint" />
            <mxPoint x="600" y="920" as="targetPoint" />
          </mxGeometry>
        </mxCell>
        <mxCell id="4QkOVlxMaS6D0nSr4OQD-40" value="" style="endArrow=none;html=1;rounded=0;exitX=0;exitY=1;exitDx=0;exitDy=0;entryX=1;entryY=0;entryDx=0;entryDy=0;" edge="1" parent="WIyWlLk6GJQsqaUBKTNV-1" source="4QkOVlxMaS6D0nSr4OQD-35" target="4QkOVlxMaS6D0nSr4OQD-22">
          <mxGeometry relative="1" as="geometry">
            <mxPoint x="425" y="764" as="sourcePoint" />
            <mxPoint x="452" y="782" as="targetPoint" />
          </mxGeometry>
        </mxCell>
        <mxCell id="4QkOVlxMaS6D0nSr4OQD-41" value="" style="endArrow=none;html=1;rounded=0;exitX=0;exitY=0;exitDx=0;exitDy=0;entryX=1;entryY=1;entryDx=0;entryDy=0;" edge="1" parent="WIyWlLk6GJQsqaUBKTNV-1" source="4QkOVlxMaS6D0nSr4OQD-36" target="4QkOVlxMaS6D0nSr4OQD-22">
          <mxGeometry relative="1" as="geometry">
            <mxPoint x="435" y="774" as="sourcePoint" />
            <mxPoint x="462" y="792" as="targetPoint" />
          </mxGeometry>
        </mxCell>
        <mxCell id="4QkOVlxMaS6D0nSr4OQD-42" value="Giao" style="shape=rhombus;perimeter=rhombusPerimeter;whiteSpace=wrap;html=1;align=center;strokeColor=#0000FF;" vertex="1" parent="WIyWlLk6GJQsqaUBKTNV-1">
          <mxGeometry x="800" y="800" width="120" height="60" as="geometry" />
        </mxCell>
        <mxCell id="4QkOVlxMaS6D0nSr4OQD-43" value="NGƯƠI GIAO" style="rounded=1;arcSize=10;whiteSpace=wrap;html=1;align=center;" vertex="1" parent="WIyWlLk6GJQsqaUBKTNV-1">
          <mxGeometry x="810" y="960" width="100" height="40" as="geometry" />
        </mxCell>
        <mxCell id="4QkOVlxMaS6D0nSr4OQD-45" value="Họ tên ND" style="ellipse;whiteSpace=wrap;html=1;align=center;" vertex="1" parent="WIyWlLk6GJQsqaUBKTNV-1">
          <mxGeometry x="920" y="1050" width="100" height="40" as="geometry" />
        </mxCell>
        <mxCell id="4QkOVlxMaS6D0nSr4OQD-46" value="Ngày giao&amp;nbsp;" style="ellipse;whiteSpace=wrap;html=1;align=center;strokeColor=#FF0000;" vertex="1" parent="WIyWlLk6GJQsqaUBKTNV-1">
          <mxGeometry x="710" y="870" width="100" height="40" as="geometry" />
        </mxCell>
        <mxCell id="4QkOVlxMaS6D0nSr4OQD-47" value="Đơn giá" style="ellipse;whiteSpace=wrap;html=1;align=center;strokeColor=#FF0000;" vertex="1" parent="WIyWlLk6GJQsqaUBKTNV-1">
          <mxGeometry x="920" y="760" width="100" height="40" as="geometry" />
        </mxCell>
        <mxCell id="4QkOVlxMaS6D0nSr4OQD-48" value="Số lương&amp;nbsp;" style="ellipse;whiteSpace=wrap;html=1;align=center;strokeColor=#FF0000;" vertex="1" parent="WIyWlLk6GJQsqaUBKTNV-1">
          <mxGeometry x="940" y="860" width="100" height="40" as="geometry" />
        </mxCell>
        <mxCell id="4QkOVlxMaS6D0nSr4OQD-49" value="Số PG" style="ellipse;whiteSpace=wrap;html=1;align=center;fontStyle=4;strokeColor=#FF0000;" vertex="1" parent="WIyWlLk6GJQsqaUBKTNV-1">
          <mxGeometry x="710" y="770" width="100" height="40" as="geometry" />
        </mxCell>
        <mxCell id="4QkOVlxMaS6D0nSr4OQD-51" value="Mã số ND" style="ellipse;whiteSpace=wrap;html=1;align=center;fontStyle=4;" vertex="1" parent="WIyWlLk6GJQsqaUBKTNV-1">
          <mxGeometry x="727" y="1040" width="100" height="40" as="geometry" />
        </mxCell>
        <mxCell id="4QkOVlxMaS6D0nSr4OQD-52" value="" style="endArrow=none;html=1;rounded=0;exitX=1;exitY=0.5;exitDx=0;exitDy=0;entryX=0;entryY=1;entryDx=0;entryDy=0;" edge="1" parent="WIyWlLk6GJQsqaUBKTNV-1" source="4QkOVlxMaS6D0nSr4OQD-46" target="4QkOVlxMaS6D0nSr4OQD-42">
          <mxGeometry relative="1" as="geometry">
            <mxPoint x="840" y="910" as="sourcePoint" />
            <mxPoint x="1000" y="910" as="targetPoint" />
          </mxGeometry>
        </mxCell>
        <mxCell id="4QkOVlxMaS6D0nSr4OQD-53" value="" style="endArrow=none;html=1;rounded=0;exitX=1;exitY=0.5;exitDx=0;exitDy=0;entryX=0;entryY=0;entryDx=0;entryDy=0;" edge="1" parent="WIyWlLk6GJQsqaUBKTNV-1" source="4QkOVlxMaS6D0nSr4OQD-49" target="4QkOVlxMaS6D0nSr4OQD-42">
          <mxGeometry relative="1" as="geometry">
            <mxPoint x="820" y="900" as="sourcePoint" />
            <mxPoint x="840" y="855" as="targetPoint" />
          </mxGeometry>
        </mxCell>
        <mxCell id="4QkOVlxMaS6D0nSr4OQD-54" value="" style="endArrow=none;html=1;rounded=0;exitX=0;exitY=0;exitDx=0;exitDy=0;entryX=1;entryY=1;entryDx=0;entryDy=0;" edge="1" parent="WIyWlLk6GJQsqaUBKTNV-1" source="4QkOVlxMaS6D0nSr4OQD-48" target="4QkOVlxMaS6D0nSr4OQD-42">
          <mxGeometry relative="1" as="geometry">
            <mxPoint x="830" y="910" as="sourcePoint" />
            <mxPoint x="850" y="865" as="targetPoint" />
          </mxGeometry>
        </mxCell>
        <mxCell id="4QkOVlxMaS6D0nSr4OQD-55" value="" style="endArrow=none;html=1;rounded=0;exitX=0.02;exitY=0.675;exitDx=0;exitDy=0;entryX=1;entryY=0;entryDx=0;entryDy=0;exitPerimeter=0;" edge="1" parent="WIyWlLk6GJQsqaUBKTNV-1" source="4QkOVlxMaS6D0nSr4OQD-47" target="4QkOVlxMaS6D0nSr4OQD-42">
          <mxGeometry relative="1" as="geometry">
            <mxPoint x="840" y="920" as="sourcePoint" />
            <mxPoint x="860" y="875" as="targetPoint" />
          </mxGeometry>
        </mxCell>
        <mxCell id="4QkOVlxMaS6D0nSr4OQD-56" value="" style="endArrow=none;html=1;rounded=0;exitX=0.5;exitY=0;exitDx=0;exitDy=0;entryX=0.072;entryY=1.015;entryDx=0;entryDy=0;entryPerimeter=0;" edge="1" parent="WIyWlLk6GJQsqaUBKTNV-1" source="4QkOVlxMaS6D0nSr4OQD-51" target="4QkOVlxMaS6D0nSr4OQD-43">
          <mxGeometry relative="1" as="geometry">
            <mxPoint x="850" y="930" as="sourcePoint" />
            <mxPoint x="820" y="980" as="targetPoint" />
          </mxGeometry>
        </mxCell>
        <mxCell id="4QkOVlxMaS6D0nSr4OQD-57" value="" style="endArrow=none;html=1;rounded=0;entryX=0.75;entryY=1;entryDx=0;entryDy=0;" edge="1" parent="WIyWlLk6GJQsqaUBKTNV-1" source="4QkOVlxMaS6D0nSr4OQD-45" target="4QkOVlxMaS6D0nSr4OQD-43">
          <mxGeometry relative="1" as="geometry">
            <mxPoint x="860" y="940" as="sourcePoint" />
            <mxPoint x="880" y="895" as="targetPoint" />
          </mxGeometry>
        </mxCell>
        <mxCell id="4QkOVlxMaS6D0nSr4OQD-58" value="" style="edgeStyle=entityRelationEdgeStyle;fontSize=12;html=1;endArrow=ERoneToMany;rounded=0;entryX=1;entryY=0.5;entryDx=0;entryDy=0;exitX=0;exitY=0.5;exitDx=0;exitDy=0;" edge="1" parent="WIyWlLk6GJQsqaUBKTNV-1" source="4QkOVlxMaS6D0nSr4OQD-42" target="4QkOVlxMaS6D0nSr4OQD-23">
          <mxGeometry width="100" height="100" relative="1" as="geometry">
            <mxPoint x="870" y="960" as="sourcePoint" />
            <mxPoint x="970" y="860" as="targetPoint" />
          </mxGeometry>
        </mxCell>
        <mxCell id="4QkOVlxMaS6D0nSr4OQD-59" value="NGUOI NHAN" style="rounded=1;arcSize=10;whiteSpace=wrap;html=1;align=center;" vertex="1" parent="WIyWlLk6GJQsqaUBKTNV-1">
          <mxGeometry x="1110" y="630" width="100" height="40" as="geometry" />
        </mxCell>
        <mxCell id="4QkOVlxMaS6D0nSr4OQD-60" value="Ma so NN" style="ellipse;whiteSpace=wrap;html=1;align=center;fontStyle=4;" vertex="1" parent="WIyWlLk6GJQsqaUBKTNV-1">
          <mxGeometry x="1241" y="580" width="100" height="40" as="geometry" />
        </mxCell>
        <mxCell id="4QkOVlxMaS6D0nSr4OQD-61" value="Họ tên NN" style="ellipse;whiteSpace=wrap;html=1;align=center;" vertex="1" parent="WIyWlLk6GJQsqaUBKTNV-1">
          <mxGeometry x="1200" y="690" width="100" height="40" as="geometry" />
        </mxCell>
        <mxCell id="4QkOVlxMaS6D0nSr4OQD-62" value="" style="endArrow=none;html=1;rounded=0;exitX=0;exitY=0;exitDx=0;exitDy=0;" edge="1" parent="WIyWlLk6GJQsqaUBKTNV-1" source="4QkOVlxMaS6D0nSr4OQD-61" target="4QkOVlxMaS6D0nSr4OQD-59">
          <mxGeometry relative="1" as="geometry">
            <mxPoint x="880" y="770" as="sourcePoint" />
            <mxPoint x="1040" y="770" as="targetPoint" />
          </mxGeometry>
        </mxCell>
        <mxCell id="4QkOVlxMaS6D0nSr4OQD-63" value="" style="endArrow=none;html=1;rounded=0;exitX=0;exitY=0.5;exitDx=0;exitDy=0;entryX=0.75;entryY=0;entryDx=0;entryDy=0;" edge="1" parent="WIyWlLk6GJQsqaUBKTNV-1" source="4QkOVlxMaS6D0nSr4OQD-60" target="4QkOVlxMaS6D0nSr4OQD-59">
          <mxGeometry relative="1" as="geometry">
            <mxPoint x="880" y="770" as="sourcePoint" />
            <mxPoint x="1040" y="770" as="targetPoint" />
          </mxGeometry>
        </mxCell>
        <mxCell id="4QkOVlxMaS6D0nSr4OQD-64" value="DƠN VỊ KH" style="rounded=1;arcSize=10;whiteSpace=wrap;html=1;align=center;" vertex="1" parent="WIyWlLk6GJQsqaUBKTNV-1">
          <mxGeometry x="1110" y="450" width="100" height="40" as="geometry" />
        </mxCell>
        <mxCell id="4QkOVlxMaS6D0nSr4OQD-65" value="Ma KH" style="ellipse;whiteSpace=wrap;html=1;align=center;fontStyle=4;" vertex="1" parent="WIyWlLk6GJQsqaUBKTNV-1">
          <mxGeometry x="970" y="420" width="100" height="40" as="geometry" />
        </mxCell>
        <mxCell id="4QkOVlxMaS6D0nSr4OQD-66" value="Dia Chi" style="ellipse;whiteSpace=wrap;html=1;align=center;" vertex="1" parent="WIyWlLk6GJQsqaUBKTNV-1">
          <mxGeometry x="1210" y="360" width="100" height="40" as="geometry" />
        </mxCell>
        <mxCell id="4QkOVlxMaS6D0nSr4OQD-67" value="Ten KH" style="ellipse;whiteSpace=wrap;html=1;align=center;" vertex="1" parent="WIyWlLk6GJQsqaUBKTNV-1">
          <mxGeometry x="1040" y="340" width="100" height="40" as="geometry" />
        </mxCell>
        <mxCell id="4QkOVlxMaS6D0nSr4OQD-68" value="" style="endArrow=none;html=1;rounded=0;exitX=1;exitY=0.5;exitDx=0;exitDy=0;entryX=0;entryY=0.5;entryDx=0;entryDy=0;" edge="1" parent="WIyWlLk6GJQsqaUBKTNV-1" source="4QkOVlxMaS6D0nSr4OQD-65" target="4QkOVlxMaS6D0nSr4OQD-64">
          <mxGeometry relative="1" as="geometry">
            <mxPoint x="1080" y="590" as="sourcePoint" />
            <mxPoint x="1040" y="770" as="targetPoint" />
          </mxGeometry>
        </mxCell>
        <mxCell id="4QkOVlxMaS6D0nSr4OQD-69" value="" style="endArrow=none;html=1;rounded=0;exitX=0.5;exitY=1;exitDx=0;exitDy=0;entryX=0.25;entryY=0;entryDx=0;entryDy=0;" edge="1" parent="WIyWlLk6GJQsqaUBKTNV-1" source="4QkOVlxMaS6D0nSr4OQD-67" target="4QkOVlxMaS6D0nSr4OQD-64">
          <mxGeometry relative="1" as="geometry">
            <mxPoint x="1110" y="570" as="sourcePoint" />
            <mxPoint x="1170" y="580" as="targetPoint" />
          </mxGeometry>
        </mxCell>
        <mxCell id="4QkOVlxMaS6D0nSr4OQD-70" value="" style="endArrow=none;html=1;rounded=0;exitX=0;exitY=0.5;exitDx=0;exitDy=0;entryX=0.75;entryY=0;entryDx=0;entryDy=0;" edge="1" parent="WIyWlLk6GJQsqaUBKTNV-1" source="4QkOVlxMaS6D0nSr4OQD-66" target="4QkOVlxMaS6D0nSr4OQD-64">
          <mxGeometry relative="1" as="geometry">
            <mxPoint x="1120" y="580" as="sourcePoint" />
            <mxPoint x="1180" y="590" as="targetPoint" />
          </mxGeometry>
        </mxCell>
        <mxCell id="4QkOVlxMaS6D0nSr4OQD-71" value="&lt;span style=&quot;background-color: rgb(255, 0, 0);&quot;&gt;Thuộc 2&lt;/span&gt;" style="shape=rhombus;perimeter=rhombusPerimeter;whiteSpace=wrap;html=1;align=center;" vertex="1" parent="WIyWlLk6GJQsqaUBKTNV-1">
          <mxGeometry x="1100" y="524.5" width="120" height="60" as="geometry" />
        </mxCell>
        <mxCell id="4QkOVlxMaS6D0nSr4OQD-72" value="" style="fontSize=12;html=1;endArrow=ERmandOne;rounded=0;exitX=0.5;exitY=1;exitDx=0;exitDy=0;" edge="1" parent="WIyWlLk6GJQsqaUBKTNV-1" source="4QkOVlxMaS6D0nSr4OQD-64" target="4QkOVlxMaS6D0nSr4OQD-71">
          <mxGeometry width="100" height="100" relative="1" as="geometry">
            <mxPoint x="910" y="820" as="sourcePoint" />
            <mxPoint x="1010" y="720" as="targetPoint" />
          </mxGeometry>
        </mxCell>
        <mxCell id="4QkOVlxMaS6D0nSr4OQD-73" value="" style="fontSize=12;html=1;endArrow=ERoneToMany;rounded=0;exitX=0.5;exitY=1;exitDx=0;exitDy=0;" edge="1" parent="WIyWlLk6GJQsqaUBKTNV-1" source="4QkOVlxMaS6D0nSr4OQD-71" target="4QkOVlxMaS6D0nSr4OQD-59">
          <mxGeometry width="100" height="100" relative="1" as="geometry">
            <mxPoint x="790" y="820" as="sourcePoint" />
            <mxPoint x="890" y="720" as="targetPoint" />
          </mxGeometry>
        </mxCell>
        <mxCell id="4QkOVlxMaS6D0nSr4OQD-74" value="NOI GIAO" style="rounded=1;arcSize=10;whiteSpace=wrap;html=1;align=center;" vertex="1" parent="WIyWlLk6GJQsqaUBKTNV-1">
          <mxGeometry x="1100" y="820" width="100" height="40" as="geometry" />
        </mxCell>
        <mxCell id="4QkOVlxMaS6D0nSr4OQD-75" value="Mã số DDG" style="ellipse;whiteSpace=wrap;html=1;align=center;fontStyle=4;" vertex="1" parent="WIyWlLk6GJQsqaUBKTNV-1">
          <mxGeometry x="1180" y="910" width="100" height="40" as="geometry" />
        </mxCell>
        <mxCell id="4QkOVlxMaS6D0nSr4OQD-76" value="Tên NG" style="ellipse;whiteSpace=wrap;html=1;align=center;" vertex="1" parent="WIyWlLk6GJQsqaUBKTNV-1">
          <mxGeometry x="1250" y="820" width="100" height="40" as="geometry" />
        </mxCell>
        <mxCell id="4QkOVlxMaS6D0nSr4OQD-78" value="" style="fontSize=12;html=1;endArrow=ERmandOne;rounded=0;exitX=0.5;exitY=0;exitDx=0;exitDy=0;entryX=0;entryY=0.5;entryDx=0;entryDy=0;" edge="1" parent="WIyWlLk6GJQsqaUBKTNV-1" source="4QkOVlxMaS6D0nSr4OQD-42" target="4QkOVlxMaS6D0nSr4OQD-59">
          <mxGeometry width="100" height="100" relative="1" as="geometry">
            <mxPoint x="790" y="1020" as="sourcePoint" />
            <mxPoint x="890" y="920" as="targetPoint" />
          </mxGeometry>
        </mxCell>
        <mxCell id="4QkOVlxMaS6D0nSr4OQD-79" value="" style="fontSize=12;html=1;endArrow=ERmandOne;rounded=0;exitX=1;exitY=0.5;exitDx=0;exitDy=0;entryX=0;entryY=0.25;entryDx=0;entryDy=0;" edge="1" parent="WIyWlLk6GJQsqaUBKTNV-1" source="4QkOVlxMaS6D0nSr4OQD-42" target="4QkOVlxMaS6D0nSr4OQD-74">
          <mxGeometry width="100" height="100" relative="1" as="geometry">
            <mxPoint x="930" y="840" as="sourcePoint" />
            <mxPoint x="1170" y="840" as="targetPoint" />
          </mxGeometry>
        </mxCell>
        <mxCell id="4QkOVlxMaS6D0nSr4OQD-80" value="" style="fontSize=12;html=1;endArrow=ERmandOne;rounded=0;entryX=0.5;entryY=0;entryDx=0;entryDy=0;exitX=0.5;exitY=1;exitDx=0;exitDy=0;" edge="1" parent="WIyWlLk6GJQsqaUBKTNV-1" source="4QkOVlxMaS6D0nSr4OQD-42" target="4QkOVlxMaS6D0nSr4OQD-43">
          <mxGeometry width="100" height="100" relative="1" as="geometry">
            <mxPoint x="940" y="850" as="sourcePoint" />
            <mxPoint x="1180" y="850" as="targetPoint" />
          </mxGeometry>
        </mxCell>
        <mxCell id="4QkOVlxMaS6D0nSr4OQD-82" value="" style="endArrow=none;html=1;rounded=0;exitX=0;exitY=0.5;exitDx=0;exitDy=0;entryX=1;entryY=0.5;entryDx=0;entryDy=0;" edge="1" parent="WIyWlLk6GJQsqaUBKTNV-1" source="4QkOVlxMaS6D0nSr4OQD-76" target="4QkOVlxMaS6D0nSr4OQD-74">
          <mxGeometry relative="1" as="geometry">
            <mxPoint x="760" y="970" as="sourcePoint" />
            <mxPoint x="920" y="970" as="targetPoint" />
          </mxGeometry>
        </mxCell>
        <mxCell id="4QkOVlxMaS6D0nSr4OQD-83" value="" style="endArrow=none;html=1;rounded=0;exitX=0;exitY=0.5;exitDx=0;exitDy=0;entryX=0.5;entryY=1;entryDx=0;entryDy=0;" edge="1" parent="WIyWlLk6GJQsqaUBKTNV-1" source="4QkOVlxMaS6D0nSr4OQD-75" target="4QkOVlxMaS6D0nSr4OQD-74">
          <mxGeometry relative="1" as="geometry">
            <mxPoint x="760" y="970" as="sourcePoint" />
            <mxPoint x="920" y="970" as="targetPoint" />
          </mxGeometry>
        </mxCell>
        <mxCell id="4QkOVlxMaS6D0nSr4OQD-84" value="" style="endArrow=none;html=1;rounded=0;exitX=0;exitY=0.5;exitDx=0;exitDy=0;" edge="1" parent="WIyWlLk6GJQsqaUBKTNV-1" source="4QkOVlxMaS6D0nSr4OQD-0" target="4QkOVlxMaS6D0nSr4OQD-5">
          <mxGeometry relative="1" as="geometry">
            <mxPoint x="640" y="380" as="sourcePoint" />
            <mxPoint x="385" y="364" as="targetPoint" />
          </mxGeometry>
        </mxCell>
        <mxCell id="4QkOVlxMaS6D0nSr4OQD-5" value="Mã ĐV" style="ellipse;whiteSpace=wrap;html=1;align=center;fontStyle=4;" vertex="1" parent="WIyWlLk6GJQsqaUBKTNV-1">
          <mxGeometry x="470" y="350" width="100" height="40" as="geometry" />
        </mxCell>
        <mxCell id="4QkOVlxMaS6D0nSr4OQD-85" value="" style="fontSize=12;html=1;endArrow=ERmandOne;rounded=0;entryX=0.75;entryY=1;entryDx=0;entryDy=0;exitX=0;exitY=0.5;exitDx=0;exitDy=0;" edge="1" parent="WIyWlLk6GJQsqaUBKTNV-1" source="4QkOVlxMaS6D0nSr4OQD-71" target="4QkOVlxMaS6D0nSr4OQD-0">
          <mxGeometry width="100" height="100" relative="1" as="geometry">
            <mxPoint x="650" y="620" as="sourcePoint" />
            <mxPoint x="760" y="410" as="targetPoint" />
          </mxGeometry>
        </mxCell>
      </root>
    </mxGraphModel>
  </diagram>
</mxfile>
